<svg width="100" height="100" viewBox="0 0 100 100" fill="none" xmlns="http://www.w3.org/2000/svg">
<rect width="100" height="100" rx="10" fill="#001F34"/>
<path d="M73.4 65.5C72.6 64.7 71.31 64.7 70.51 65.5L68.45 67.56L65.9 65.01L72.73 58.18C73.53 57.38 73.53 56.09 72.73 55.29C71.93 54.49 70.64 54.49 69.84 55.29L68.2 56.93L51.31 40.03C49.54 38.26 45.01 35.54 39.64 38.74L28.49 27.6C27.69 26.8 26.4 26.8 25.6 27.6C24.8 28.4 24.8 29.69 25.6 30.49L36.75 41.64C34.44 45.27 34.87 50.14 38.04 53.31L54.95 70.2L53.31 71.83C52.51 72.63 52.51 73.92 53.31 74.72C53.71 75.12 55.08 75.84 56.2 74.72L59.28 71.64L63.03 67.89L65.58 70.44L63.51 72.5C62.71 73.3 62.71 74.59 63.51 75.39C63.91 75.79 65.25 76.54 66.4 75.39L73.4 68.39C74.2 67.59 74.2 66.3 73.4 65.5ZM57.83 67.32L53.53 63.03L56.07 60.49C56.87 59.69 56.87 58.4 56.07 57.6C55.27 56.8 53.98 56.8 53.18 57.6L50.64 60.14L48.67 58.17L51.21 55.63C52.01 54.83 52.01 53.54 51.21 52.74C50.41 51.94 49.12 51.94 48.32 52.74L45.78 55.28L43.82 53.3L46.36 50.76C47.16 49.96 47.16 48.67 46.36 47.87C45.56 47.07 44.27 47.07 43.47 47.87L40.93 50.41L40.92 50.4C38.85 48.33 38.85 44.97 40.92 42.91C42.39 41.44 45.82 40.32 48.42 42.91L65.33 59.81L57.83 67.32Z" fill="#0E8EE5"/>
<path d="M35.4403 55.9003C34.6703 55.2403 33.5303 55.2403 32.7703 55.9003C31.5103 56.9903 25.2603 62.6303 25.2603 67.1003C25.2603 71.9803 29.2303 75.9503 34.1103 75.9503C38.9903 75.9503 42.9603 71.9803 42.9603 67.1003C42.9503 62.6303 36.6903 56.9803 35.4403 55.9003ZM34.1003 71.8603C31.4703 71.8603 29.3303 69.7203 29.3303 67.1003C29.3303 65.5103 31.8403 62.4403 34.1003 60.2203C36.3603 62.4403 38.8703 65.5003 38.8703 67.1003C38.8703 69.7203 36.7303 71.8603 34.1003 71.8603Z" fill="#0E8EE5"/>
<path d="M66 15C66 10.0294 70.0294 6 75 6H85C89.9706 6 94 10.0294 94 15C94 19.9706 89.9706 24 85 24H75C70.0294 24 66 19.9706 66 15Z" fill="white"/>
<path d="M77.858 19C77.786 19 77.722 18.976 77.666 18.928C77.618 18.872 77.594 18.808 77.594 18.736C77.594 18.696 77.602 18.66 77.618 18.628L80.21 13.06H76.91C76.822 13.06 76.746 13.028 76.682 12.964C76.618 12.9 76.586 12.824 76.586 12.736V10.924C76.586 10.836 76.618 10.76 76.682 10.696C76.746 10.632 76.822 10.6 76.91 10.6H83.114C83.21 10.6 83.286 10.632 83.342 10.696C83.406 10.76 83.438 10.836 83.438 10.924V12.508C83.438 12.628 83.422 12.732 83.39 12.82C83.366 12.908 83.33 13.008 83.282 13.12L80.666 18.724C80.562 18.908 80.398 19 80.174 19H77.858Z" fill="#001F34"/>
<path d="M77.858 19C77.786 19 77.722 18.976 77.666 18.928C77.618 18.872 77.594 18.808 77.594 18.736C77.594 18.696 77.602 18.66 77.618 18.628L80.21 13.06H76.91C76.822 13.06 76.746 13.028 76.682 12.964C76.618 12.9 76.586 12.824 76.586 12.736V10.924C76.586 10.836 76.618 10.76 76.682 10.696C76.746 10.632 76.822 10.6 76.91 10.6H83.114C83.21 10.6 83.286 10.632 83.342 10.696C83.406 10.76 83.438 10.836 83.438 10.924V12.508C83.438 12.628 83.422 12.732 83.39 12.82C83.366 12.908 83.33 13.008 83.282 13.12L80.666 18.724C80.562 18.908 80.398 19 80.174 19H77.858Z" fill="#001F34"/>
</svg>
